<svg id="Layer_1" data-name="Layer 1" xmlns="http://www.w3.org/2000/svg" viewBox="0 0 655.8 184.82"><defs><style>.cls-1{fill:#fef010;}.cls-1,.cls-2{fill-rule:evenodd;}.cls-2{fill:#1d5ba9;}</style></defs><path class="cls-1" d="M1.34,173.38V133.49H9.05v33.59H28.63v6.3ZM126.1,2.8H655.8V121.15H126.1V2.8Zm-8.26,0H0V121.15H117.84V2.8ZM32.37,158.73a14.74,14.74,0,0,1,4.18-10.88,14.93,14.93,0,0,1,11.05-4.21q7.21,0,11.21,4t4,11q0,7-4.06,11.09T47.6,173.94c-4.82,0-8.55-1.39-11.22-4.16s-4-6.46-4-11.05Zm7.7,0q0,9.63,7.53,9.63a6.69,6.69,0,0,0,5.48-2.5c1.35-1.67,2-4.06,2-7.13,0-6.34-2.49-9.51-7.5-9.51a6.71,6.71,0,0,0-5.49,2.5c-1.37,1.68-2,4-2,7Zm59.84,15.21H97.24l-8.73-18-8.67,18H77.11l-12-29.74h7.76l6.45,17.41,7.73-17.41h2.67l8,17.52,6.89-17.52h7.27l-12,29.74Zm41.41-1.28v12.16h-7.4V144.2h7.4v2a9.82,9.82,0,0,1,6.84-2.52q15.17,0,15.16,15.38,0,7.17-4.19,11t-11.45,3.87a15.54,15.54,0,0,1-6.36-1.28Zm0-21.31V166.7a7.71,7.71,0,0,0,4.71,1.49c3.41,0,5.87-.75,7.36-2.25s2.24-3.86,2.24-7.09q0-5.17-2.23-7.29c-1.47-1.41-3.93-2.11-7.34-2.11a6.79,6.79,0,0,0-4.74,1.9Zm46.84-.79a8.07,8.07,0,0,0-4.34-1.22,6.08,6.08,0,0,0-4.58,2.15,7.46,7.46,0,0,0-2,5.27v16.62h-7.4V144.2h7.4v2.68a10.92,10.92,0,0,1,8.26-3.24,12.64,12.64,0,0,1,5.8,1.07l-3.14,5.85Zm13.34-17.68a4.34,4.34,0,0,1,3,1.16,3.72,3.72,0,0,1,0,5.6,4.56,4.56,0,0,1-6.08,0,3.74,3.74,0,0,1,0-5.6,4.36,4.36,0,0,1,3-1.16Zm-3.82,40.5v-23.6h-4.06V144.2H205.2v29.18Zm41-26.89-3.17,5.08a10.34,10.34,0,0,0-7-2.23,8.7,8.7,0,0,0-6.64,2.57,10,10,0,0,0-2.43,7.14q0,9.19,9.5,9.2a11.28,11.28,0,0,0,7.24-2.51l2.72,5.35a19.65,19.65,0,0,1-5.64,2.36,29.49,29.49,0,0,1-5.69.49q-7.35,0-11.59-3.94t-4.24-10.95a14.42,14.42,0,0,1,4.64-11.16q4.65-4.24,12.67-4.25a16.37,16.37,0,0,1,9.61,2.85Zm34.45,14.39H250.49a7.17,7.17,0,0,0,2.61,5.43,9.89,9.89,0,0,0,6.45,1.94c3.39,0,5.95-.8,7.71-2.4l2.87,5.19q-3.9,2.9-11.66,2.9-7.25,0-11.47-3.92t-4.21-10.91a14.54,14.54,0,0,1,4.63-11.19,15.81,15.81,0,0,1,11.11-4.28q6.9,0,11.07,3.8a12.47,12.47,0,0,1,4.17,9.65,17.39,17.39,0,0,1-.63,3.79Zm-22.35-5.13h15.52q-.76-6.42-7.67-6.41-6.31,0-7.85,6.41Zm27,15.76,2.63-5.44a12.26,12.26,0,0,0,7.49,2.46c2.88,0,4.31-.95,4.31-2.84a3.35,3.35,0,0,0-1.3-2.73,19.9,19.9,0,0,0-5.06-2.51c-5.46-2.1-8.19-5-8.19-8.79a6.72,6.72,0,0,1,3.13-5.9,14,14,0,0,1,8-2.12,21.58,21.58,0,0,1,9.28,2L295.94,151a10.72,10.72,0,0,0-6.74-1.89q-3.87,0-3.87,2.83a2.5,2.5,0,0,0,1.27,2,28.46,28.46,0,0,0,5.44,2.42,14,14,0,0,1,6,3.66,7.8,7.8,0,0,1,1.83,5.21,7.45,7.45,0,0,1-3.27,6.4q-3.27,2.32-8.89,2.33a22.13,22.13,0,0,1-5.07-.47,27.22,27.22,0,0,1-4.9-2Zm64-1a7.1,7.1,0,0,1-3.5,2.5,14.49,14.49,0,0,1-5.23,1c-3.4,0-6.09-.79-8-2.36a8.12,8.12,0,0,1-2.93-6.7,9.14,9.14,0,0,1,4.12-7.94q4.13-2.85,11.72-2.86a14.69,14.69,0,0,1,3.08.39q0-5.13-7.07-5.13a16.71,16.71,0,0,0-7,1.28l-1.6-5.3a22.5,22.5,0,0,1,9.1-1.68q7.25,0,10.63,3c2.25,2,3.37,5.86,3.37,11.52v6.24c0,3.88.85,6.33,2.55,7.32a3.94,3.94,0,0,1-2,1.84,8.81,8.81,0,0,1-2.58.34,4.26,4.26,0,0,1-2.88-1.1,5.5,5.5,0,0,1-1.72-2.37ZM341,159.6a18.3,18.3,0,0,0-2.84-.33q-8.75,0-8.74,5.32,0,3.94,4.93,3.94,6.65,0,6.65-6.19V159.6Zm35.75,13.78V156.5q0-3.74-1.56-5.44t-5.06-1.72a8.34,8.34,0,0,0-3.48.84,8,8,0,0,0-2.88,2.1v21.1h-7.39V144.2h5.32l1.36,2.73q3-3.28,8.9-3.29,5.66,0,8.92,3.13c2.17,2.07,3.26,5,3.26,8.7v17.91Zm35.85,0v-1.77a7.8,7.8,0,0,1-3.11,1.63,14.69,14.69,0,0,1-4.53.7c-4.43,0-7.9-1.29-10.44-3.87s-3.81-6.18-3.81-10.8A15.21,15.21,0,0,1,395.07,148,14.87,14.87,0,0,1,406,143.64a15.5,15.5,0,0,1,6.58,1.37V133.34l7.4-1.64v41.68Zm0-22.19a8.16,8.16,0,0,0-4.94-1.74c-3,0-5.25.82-6.85,2.49s-2.4,4-2.4,7.15q0,9.1,9.54,9.1a7.67,7.67,0,0,0,2.62-.58,4.77,4.77,0,0,0,2-1.19V151.19Zm69.77,22.19V155.09c0-3.84-1.87-5.75-5.61-5.75a6.19,6.19,0,0,0-3.2.9,5.34,5.34,0,0,0-2.16,2.07v21.07H464V154a4.32,4.32,0,0,0-1.45-3.42,6,6,0,0,0-4.1-1.26,6.1,6.1,0,0,0-3,.95A6.85,6.85,0,0,0,453,152.4v21h-7.4V144.2h5.09l1.52,2.57a10.7,10.7,0,0,1,8-3.13c4.22,0,7.38,1.06,9.51,3.18a9.79,9.79,0,0,1,3.88-2.31,15.1,15.1,0,0,1,5-.87q5.31,0,8.25,2.79a10.08,10.08,0,0,1,2.95,7.68v19.27Zm13.3-14.65a14.74,14.74,0,0,1,4.18-10.88,14.93,14.93,0,0,1,11.06-4.21q7.22,0,11.2,4t4,11q0,7-4.07,11.09t-11.13,4.12q-7.23,0-11.23-4.16t-4-11.05Zm7.7,0q0,9.63,7.54,9.63a6.68,6.68,0,0,0,5.47-2.5c1.35-1.67,2-4.06,2-7.13q0-9.51-7.5-9.51a6.73,6.73,0,0,0-5.5,2.5,10.84,10.84,0,0,0-2,7Zm47-8.17a8.1,8.1,0,0,0-4.35-1.22,6.06,6.06,0,0,0-4.57,2.15,7.42,7.42,0,0,0-2,5.27v16.62H532V144.2h7.39v2.68a10.94,10.94,0,0,1,8.27-3.24,12.64,12.64,0,0,1,5.8,1.07l-3.14,5.85Zm35.87,10.32H563.57a7.24,7.24,0,0,0,2.61,5.43,9.93,9.93,0,0,0,6.46,1.94q5.07,0,7.71-2.4l2.87,5.19q-3.91,2.9-11.66,2.9-7.24,0-11.47-3.92t-4.21-10.91a14.56,14.56,0,0,1,4.62-11.19,15.82,15.82,0,0,1,11.12-4.28q6.9,0,11.06,3.8a12.47,12.47,0,0,1,4.18,9.65,18,18,0,0,1-.63,3.79Zm-22.35-5.13H579.4q-.78-6.42-7.67-6.41-6.32,0-7.85,6.41Zm30,14a4.48,4.48,0,0,1,1.56-3.46,5.7,5.7,0,0,1,7.55,0,4.51,4.51,0,0,1,1.56,3.46,4.57,4.57,0,0,1-1.56,3.49,5.67,5.67,0,0,1-7.55,0,4.54,4.54,0,0,1-1.56-3.49Zm22.26,0a4.51,4.51,0,0,1,1.56-3.46,5.7,5.7,0,0,1,7.55,0,4.48,4.48,0,0,1,1.56,3.46,4.54,4.54,0,0,1-1.56,3.49,5.67,5.67,0,0,1-7.55,0,4.57,4.57,0,0,1-1.56-3.49Zm22.26,0a4.51,4.51,0,0,1,1.56-3.46,5.71,5.71,0,0,1,7.56,0,4.5,4.5,0,0,1,1.55,3.46,4.56,4.56,0,0,1-1.55,3.49,5.68,5.68,0,0,1-7.56,0A4.57,4.57,0,0,1,638.45,169.79Z"/><path class="cls-2" d="M429.2,45.31a7.69,7.69,0,0,1-.16-2.73c0-2.77.08-1.92-3.06-1.93H414.7c-1.2.11-.63.82-.63,1.78V83.77h14.64V57.06a7,7,0,0,1,3.18-6.15,9.1,9.1,0,0,1,6.83-.8,5.53,5.53,0,0,1,3.08,2.07,6.48,6.48,0,0,1,1.26,2.6,4.8,4.8,0,0,0,.32,1c.46,1.4-.26,25.61.3,28h14.8V58.83c0-3.13,1-7.14,4.33-8.23.92-.3.95-.46,1.3-.46h3.54c1.46,0,3.16,2.07,4,3.29a11.56,11.56,0,0,1,1,2.54c.42,1.23.25,22.42.19,26.69,0,1.65.23,1.17.4,1.18l10.71-.07c4.32,0,4.22.43,4.2-1.11,0-.59,0-1.19,0-1.78V70.41c-.34-6.5.86-15.91-1.37-22a11.5,11.5,0,0,0-.48-1.29l-.17-.31a9.81,9.81,0,0,0-2.83-3.77,15.61,15.61,0,0,0-7.57-3.21c-1.75-.18-5.72-.37-7.29.23a20.74,20.74,0,0,0-3.17,1.18l-1.76,1a14.09,14.09,0,0,0-1.72,1.17l-3.35,3.09c-.6.66-.36.72-1,.9-.39-.29-1.05-2.25-2.34-3.61l-1.7-1.68A16.33,16.33,0,0,0,449,39.88c-6.11-1.62-11.68,0-16.71,3.17l-.29.19-2,1.57c-.42.35-.22.35-.78.5Zm-389-19H54.8v29a31.83,31.83,0,0,1,9.42-6.64,28,28,0,0,1,10.85-1.9c6.57,0,11.53,1.87,14.93,5.61s5.08,9.2,5.08,16.37V105.1h-23V73.72c0-3.42-.63-5.94-1.9-7.51s-3.3-2.37-6.06-2.37q-4.75,0-7,3.36c-1.52,2.23-2.26,5.74-2.26,10.5v27.4H31.89v-58l-3.42-9-8.79,4,4-8.79-9-3.41,9-3.42-4-8.79,8.79,4,3.42-9,3.42,9,8.79-4-3.92,8.69ZM31.89,47.1l3.42-9,8.79,4-4-8.79,9-3.41-9-3.42,0-.1H31.89V47.1Zm250.24,5c0-.46.27-.52.61-.68s.52-.2.82-.3l1.72-.54c1.3-.34.08-.28,2-.42,3.31-.26,6.56-.18,9.13,2.49l.15.17a9,9,0,0,1,2,4c.67,1.9.46,8.91,0,10.46s-.72,3.4-2.21,4.87c-2.57,2.55-5.64,3.18-9.21,3.18-.75,0-5-1.11-5-2.1V52.07ZM173.52,46.44c-.68-1.41.27-20.95-.32-23.49-1.65-.39-11.68-.17-14.16-.17a.62.62,0,0,0-.65.65V83.29c0,.37.12.48.49.48h13.83c.5,0,.65-.47.65-1V70.74c0-4.63-.31-9.25-.16-13.53.1-2.94-.39-3.06,2.34-5.05l.79-.49c3.22-1.59,7.32-1.91,10.32.46a5,5,0,0,1,.84.94,3.62,3.62,0,0,1,.58,1,7.69,7.69,0,0,1,.73,2.49V83.77h15.93V55.45c0-1.24-.37-2.24-.48-3.54a17.68,17.68,0,0,0-2.18-5.86,8.59,8.59,0,0,0-.78-1.15l-.65-.8a8,8,0,0,0-1.34-1.24,3.86,3.86,0,0,0-1.09-.84l-5.71-2.17c-2.89-.22-7.31-.28-10,.63l-1,.33-1.9.84a15.65,15.65,0,0,0-3.52,2.43L174,46.29c-.31.19.08.1-.49.15ZM511.1,71.06a4.51,4.51,0,0,1,.43-1.82,5,5,0,0,1,.67-1.42c1.69-2.43,5.76-4,8.55-4,3.87,0,5.15-.49,5.15,1v6.75a2.52,2.52,0,0,1-.78,1.64c-2.42,2.64-5.65,2.71-9,2.71a5,5,0,0,1-5-4.83ZM236.43,100c.16-.33.33-.73.44-1l2.07-5,.05-.11c.12-.25,0,0,.22-.42L256,53.27c.3-.65.48-1.2.76-1.82,1-2.15,1.75-4.46,2.73-6.6l1.15-2.71c.19-.44,1-1.49.12-1.49H246.09c-.71,0-.72.87-.91,1.5l-4.84,15.6c-.1.31-.18.44-.3.83l-2.31,7.34c-.39,1.13-.59,3-1.46,3.21-.27-1.15-.9-2.51-1.31-3.68l-4.73-13.12c-.12-.34-.08-.14-.2-.45l-.65-1.77a6.19,6.19,0,0,0-.32-.81l-.5-1.42c-.06-.15-.06-.2-.12-.37-.21-.61-.2-.37-.37-.91a51.1,51.1,0,0,0-1.95-5.46c-.14-.25-.19-.49-.63-.49H211c-.88,0,0,1.53.45,2.61l4.11,10.2c.17.41.18.53.34.95l.41.88c.16.43.25.61.41,1l1.08,2.78c.13.34.25.48.4.88l.09.24,2.88,7.26c1.17,2.74,2.12,5.68,3.36,8.39l.39.9c.14.4.25.58.38.9s.29.71.41,1l1.09,2.77c.91,1.91.28,2.54-.42,4.31l-2.6,6.41c-.16.37-.08.12-.22.43s-.2.61-.34,1l-1.13,2.72a18.3,18.3,0,0,0-1.44,3.72c2.53.21,9-.13,12.08,0Zm98.32-43.29a11.3,11.3,0,0,1,.68-3.66,6.12,6.12,0,0,1,.76-1.49c.16-.23.27-.43.44-.69a1.34,1.34,0,0,1,.2-.28l.07-.09.16-.16c.24-.24.36-.32.59-.54l.34-.31a2.78,2.78,0,0,1,.27-.21,7.57,7.57,0,0,1,1.35-.74,11.25,11.25,0,0,1,9.71.52l.3.17a7,7,0,0,1,3.33,5c.09.62.82,2.6-.34,2.6-2.85,0-16.16.24-17.86-.16ZM626.3,41.45c0-.73.2.12,0-.8H614.56c-1.88,0-2.9.35-2.9-1V28.42H597.18V39.68c0,.72-.2,1-.95,1-.58,0-1.34,0-2,0-1.55,0-3.37-.31-3.37.48,0,10.12-.68,8.55,2.4,8.52h3.23c.47,1,.16.6.16,1.45l0,17.33,1.08,8.09a10,10,0,0,0,2.94,4.79,9.41,9.41,0,0,0,.78.66,6.86,6.86,0,0,0,1,.63l.53.28a13,13,0,0,0,2.7,1,4.08,4.08,0,0,0,1.25.36,9,9,0,0,1,1.27.18c3.42.7,9.63.23,13.07-.15.94-.1,1.84,0,2.79-.11,2.7-.44,2,.64,2-8.92,0-.87-.8-.55-1.53-.42s-1.37,0-2.14.12c-3.05.33-8,1-9.7-1.94a7.51,7.51,0,0,1-.79-2.59c-.59-2.52-.32-16.3-.32-19.8,0-.49.15-1,.65-1h14V41.45Zm-58.73-.8H553.74c-1,0-.54,2.13-.55,2.71-.32,13.07-.1,26.5-.1,39.61a2.42,2.42,0,0,0,.16.8c4.5,0,9-.06,13.53,0,1.86,0,1.28-.23,1.28-5.48V57.7c0-2.56-.66-3.22,3.94-4.42a27.46,27.46,0,0,1,10.56-.43c.53.06,1.06,0,1.59,0s1,.34,1-.34V41.29c0-.66-.89-.5-1.49-.6a14.22,14.22,0,0,0-6.32.35,4.66,4.66,0,0,1-.6.2l-2.77,1.1-3.78,2.49c-.36.31-1.44,1.45-1.77,1.39s-.34-.55-.33-1.22l0-3.24c0-.6.13-1.11-.5-1.11ZM390.9,46.28c-.58-1.1-.32-3.75-.32-5.63h-14.8V83.77h14.8V56.1a1.58,1.58,0,0,1,1.14-1.76,12.05,12.05,0,0,1,2-.88l4.88-.9h4.51c1.05,0,1.26.32,2.41.32,1.75,0,2.26.4,2.26-.32,0-2.24.21-10-.16-11.59-.5-.12-.94-.15-1.52-.25-5.21-1-9.22,1.09-13.27,4-.91.65-1,1.09-2,1.59Zm-57,18c0-.52,1.55-.32,2.09-.32h29.45a8.51,8.51,0,0,0,2.17-.08c.36-.22.4-1.29.4-1.85,0-4.3-.26-7.41-2-11.22a16,16,0,0,0-1-1.87,17.61,17.61,0,0,0-7.71-6.77L354.19,41a35.08,35.08,0,0,0-11.65-1.24c-.88.13-2,0-2.74.16A38.28,38.28,0,0,0,333,41.84c-.39.17-.63.27-1,.45s-.55.3-.93.52c-4,2.28-6.48,4.24-9,8.41A17.94,17.94,0,0,0,320,56.3a5.35,5.35,0,0,0-.29,1.15,25.32,25.32,0,0,0-.55,5.24,24.53,24.53,0,0,0,1.61,7.56c1.8,4.43,2.38,4.67,4.45,7.13a19.36,19.36,0,0,0,6.52,4.92c.54.26,1,.43,1.56.69a9.18,9.18,0,0,0,1.67.57,18.16,18.16,0,0,0,3.76.92l6.33.59c.89,0,1.11-.18,2.09-.17l11.32-1.24c1.44-.43,2.1-.42,2.74-.63l5.25-1.51V71.22c-.69,0-.6.12-1.08.36l-12.47,3.79c-.41.06-.78,0-1.21.08a20.43,20.43,0,0,1-10.78-1c-.35-.13-.63-.3-1.08-.52l-1-.63c-3-2.15-4.9-5-4.9-9ZM500,52.07a10.31,10.31,0,0,0,2.84-1l.82-.31,1.78-.63c.64-.17,1.14-.34,1.86-.56l4-.86c.9-.07,1.12-.25,2.09-.32,3.2-.26,7.07-.23,10,1.48,2.05,1.21,3.69,3.33,3.08,5.92a12,12,0,0,1-2.09,0l-6.57.36-10.47,2.24a4.68,4.68,0,0,0-.83.3l-4.35,2.09-.1.06-.1.06-.1.06-1.32.93a14.66,14.66,0,0,0-3.27,3.65c-2.17,3.88-1.4,10.7,1.29,14.31l1,1.23.32.33.86.74c4.06,3,8.75,2.8,13.43,2.09.67-.1,1.27-.31,2.13-.44L522,81.94a24.1,24.1,0,0,1,3.6-1.38c.37.71.35.69.32,1.77,0,.71-.2,1.44.48,1.44h13.84c.37,0,.48-.11.48-.48,0-5.49.25-28.93-.14-32.52A9.71,9.71,0,0,0,538,45.56a15.12,15.12,0,0,0-4.49-3.39,4.74,4.74,0,0,0-.64-.33c-.33-.14-.48-.17-.81-.31l-7.4-1.77c-5.58-.91-12-.21-17.58.61-.27,0-.79.18-1.05.23-.74.14-1.4.15-2.12.3a17.39,17.39,0,0,1-2,.39,10.89,10.89,0,0,0-1.93.48v10.3ZM281.32,45.15c-.06-.81-.13-.37,0-1.16a13.27,13.27,0,0,0-.12-3.34H270.54c-1.54,0-3.05-.3-3.05.48v59.38c0,.37.11.48.48.48h13.84c.73,0,.49-1.14.48-1.93V87c0-5-.32-4.48,1.58-3.67l2,.86c.48.14.72.11,1.19.25a12.49,12.49,0,0,0,2.42.48,17.85,17.85,0,0,0,7.35-.07c.43-.1.68-.08,1.12-.17a5.92,5.92,0,0,0,1-.29l1.95-.63c.48-.18,1.33-.54,1.8-.78L306,81.05a8.94,8.94,0,0,0,1.5-1.23l.27-.22a17.06,17.06,0,0,0,3-3.4l1.57-2.61c.17-.39-.07.17.09-.24a23.41,23.41,0,0,0,1.42-3.72c.08-.36.14-.64.25-1,.19-.74.28-1.36.45-2.12a38.4,38.4,0,0,0-.46-12.55c-.16-.55-.18-.9-.33-1.44a17.92,17.92,0,0,0-7.91-10.27,21.53,21.53,0,0,0-6.67-2.34,37.84,37.84,0,0,0-6.82.07l-2.89.81a15.31,15.31,0,0,0-3.5,1.49,19,19,0,0,0-3.46,2.32A1.45,1.45,0,0,1,281.32,45.15Z"/></svg>